<?xml version="1.0" encoding="UTF-8" standalone="no"?>
<svg
   xmlns:dc="http://purl.org/dc/elements/1.1/"
   xmlns:cc="http://creativecommons.org/ns#"
   xmlns:rdf="http://www.w3.org/1999/02/22-rdf-syntax-ns#"
   xmlns:svg="http://www.w3.org/2000/svg"
   xmlns="http://www.w3.org/2000/svg"
   xmlns:sodipodi="http://sodipodi.sourceforge.net/DTD/sodipodi-0.dtd"
   xmlns:inkscape="http://www.inkscape.org/namespaces/inkscape"
   inkscape:version="1.0 (4035a4fb49, 2020-05-01)"
   sodipodi:docname="data.svg"
   version="1.1"
   data-name="Out line"
   width="100"
   viewBox="0 0 100 100"
   height="100"
   id="Out_line">
  <metadata
     id="metadata23">
    <rdf:RDF>
      <cc:Work
         rdf:about="">
        <dc:format>image/svg+xml</dc:format>
        <dc:type
           rdf:resource="http://purl.org/dc/dcmitype/StillImage" />
        <dc:title></dc:title>
      </cc:Work>
    </rdf:RDF>
  </metadata>
  <defs
     id="defs21" />
  <sodipodi:namedview
     inkscape:current-layer="Out_line"
     inkscape:window-maximized="1"
     inkscape:window-y="32"
     inkscape:window-x="-8"
     inkscape:cy="71.941751"
     inkscape:cx="256"
     inkscape:zoom="1.1830271"
     showgrid="false"
     id="namedview19"
     inkscape:window-height="837"
     inkscape:window-width="1440"
     inkscape:pageshadow="2"
     inkscape:pageopacity="0"
     guidetolerance="10"
     gridtolerance="10"
     objecttolerance="10"
     borderopacity="1"
     bordercolor="#666666"
     pagecolor="#ffffff" />
  <path
     style="stroke-width:0.156435"
     id="path2"
     d="m 32.774701,45.866685 1.211282,-2.241722 a 6.0472694,6.474167 0 0 1 0.130741,-11.293336 13.203071,14.135122 0 0 0 1.044294,2.447923 l 2.093905,-1.296792 A 10.883439,11.651739 0 1 1 57.352771,29.9889 l 2.370738,0.515145 a 13.39195,14.337335 0 0 0 0.260803,-2.621675 3.6279368,3.8840458 0 0 1 4.693369,4.764676 1.2094574,1.2948374 0 0 0 1.440573,1.627312 4.8386885,5.1802687 0 0 1 3.063128,9.785443 l 0.968548,2.373233 a 7.2580737,7.7704467 0 0 0 -2.9033,-14.891667 6.0343785,6.4603667 0 0 0 -7.448444,-6.294598 13.303989,14.243165 0 0 0 -26.271712,4.504693 8.4097361,9.0034092 0 0 0 -4.984174,8.264374 8.4977613,9.0976481 0 0 0 4.232401,7.850849 z" />
  <path
     style="stroke-width:0.156435"
     id="path4"
     d="m 40.637404,52.259669 h 2.419021 v 2.58979 h -2.419021 z" />
  <path
     style="stroke-width:0.156435"
     id="path6"
     d="m 45.475447,52.259669 h 2.41902 v 2.58979 h -2.41902 z" />
  <path
     style="stroke-width:0.156435"
     id="path8"
     d="m 50.313486,52.259669 h 4.838043 v 2.58979 h -4.838043 z" />
  <path
     style="stroke-width:0.156435"
     id="path10"
     d="m 40.637404,41.900518 h 2.419021 v 2.589787 h -2.419021 z" />
  <path
     style="stroke-width:0.156435"
     id="path12"
     d="m 45.475447,41.900518 h 2.41902 v 2.589787 h -2.41902 z" />
  <path
     style="stroke-width:0.156435"
     id="path14"
     d="m 50.313486,41.900518 h 4.838043 v 2.589787 h -4.838043 z" />
  <path
     style="stroke-width:0.156435"
     id="path16"
     d="M 86.598797,72.977977 H 78.132223 V 66.5035 A 1.2094756,1.2948568 0 0 0 76.922715,65.208613 H 54.943478 a 3.6456636,3.9030241 0 0 0 -2.210973,-2.367051 v -2.81253 H 64.827611 A 1.2094756,1.2948568 0 0 0 66.037122,58.73414 V 38.015836 A 1.2094756,1.2948568 0 0 0 64.827611,36.720942 H 37.008873 a 1.2094756,1.2948568 0 0 0 -1.209511,1.294894 V 58.73414 a 1.2094756,1.2948568 0 0 0 1.209511,1.294892 h 13.304613 v 2.81253 a 3.6456636,3.9030241 0 0 0 -2.21097,2.367051 H 26.12328 A 1.2094756,1.2948568 0 0 0 24.913769,66.5035 v 6.474477 h -8.466572 a 1.2094756,1.2948568 0 0 0 -1.20951,1.294895 v 12.948936 a 3.6325935,3.8890311 0 0 0 3.628531,3.884685 h 14.514124 a 3.6325935,3.8890311 0 0 0 3.628531,-3.884685 V 74.272872 A 1.2094756,1.2948568 0 0 0 35.799362,72.977977 H 27.33279 v -5.179582 h 20.769726 a 3.6456636,3.9030241 0 0 0 2.21097,2.367051 v 2.812531 h -8.466571 a 1.2094756,1.2948568 0 0 0 -1.209511,1.294895 v 12.948936 a 3.6325935,3.8890311 0 0 0 3.628531,3.884685 H 58.78006 a 3.6325935,3.8890311 0 0 0 3.628535,-3.884685 V 74.272872 a 1.2094756,1.2948568 0 0 0 -1.209513,-1.294895 h -8.466577 v -2.812531 a 3.6456636,3.9030241 0 0 0 2.210973,-2.367051 h 20.769726 v 5.179582 H 67.24663 a 1.2094756,1.2948568 0 0 0 -1.209508,1.294895 v 12.948936 a 3.6325935,3.8890311 0 0 0 3.628531,3.884685 h 14.514121 a 3.6325935,3.8890311 0 0 0 3.628534,-3.884685 V 74.272872 A 1.2094756,1.2948568 0 0 0 86.598797,72.977977 Z M 63.618098,57.439245 h -2.419016 v -7.769363 h 2.419016 z m 0,-10.35915 H 61.199082 V 39.31073 h 2.419016 z M 58.78006,39.31073 v 7.769365 H 38.218383 V 39.31073 Z M 38.218383,49.669882 H 58.78006 v 7.769363 H 38.218383 Z M 17.656707,87.221808 V 75.56776 h 1.91806 l 4.483766,4.800293 a 1.2093244,1.2946949 0 0 0 0.855236,0.379287 h 4.838041 v 6.474468 a 3.6111927,3.8661198 0 0 0 0.208052,1.294895 H 18.866218 a 1.2108967,1.2963783 0 0 1 -1.209511,-1.294895 z m 16.933145,0 a 1.2095104,1.2948941 0 0 1 -2.41902,0 V 79.452445 A 1.2094756,1.2948568 0 0 0 30.961322,78.15755 H 25.41473 l -2.41902,-2.58979 h 11.594142 z m 8.466573,0 V 75.56776 h 1.918058 l 4.483769,4.800293 a 1.2093244,1.2946949 0 0 0 0.855234,0.379287 h 4.838043 v 6.474468 a 3.6111927,3.8661198 0 0 0 0.20805,1.294895 H 44.265935 a 1.2108967,1.2963783 0 0 1 -1.20951,-1.294895 z m 16.933146,0 a 1.2095115,1.2948953 0 0 1 -2.419023,0 V 79.452445 A 1.2094756,1.2948568 0 0 0 56.36104,78.15755 h -5.546594 l -2.41902,-2.58979 H 59.989571 Z M 51.522997,67.798395 A 1.2095103,1.294894 0 1 1 52.732505,66.5035 1.2108967,1.2963783 0 0 1 51.522997,67.798395 Z M 68.456141,87.221808 V 75.56776 h 1.918063 l 4.483761,4.800293 a 1.2093244,1.2946949 0 0 0 0.855239,0.379287 h 4.838042 v 6.474468 a 3.6111927,3.8661198 0 0 0 0.20805,1.294895 H 69.665653 a 1.2108967,1.2963783 0 0 1 -1.209512,-1.294895 z m 16.933144,0 a 1.2095103,1.294894 0 0 1 -2.419016,0 V 79.452445 A 1.2094756,1.2948568 0 0 0 81.760758,78.15755 h -5.546595 l -2.419022,-2.58979 h 11.594144 z" />
</svg>
