<?xml version="1.0" encoding="UTF-8" standalone="no"?>
<svg
   xmlns:dc="http://purl.org/dc/elements/1.1/"
   xmlns:cc="http://creativecommons.org/ns#"
   xmlns:rdf="http://www.w3.org/1999/02/22-rdf-syntax-ns#"
   xmlns:svg="http://www.w3.org/2000/svg"
   xmlns="http://www.w3.org/2000/svg"
   xmlns:sodipodi="http://sodipodi.sourceforge.net/DTD/sodipodi-0.dtd"
   xmlns:inkscape="http://www.inkscape.org/namespaces/inkscape"
   inkscape:version="1.0 (4035a4fb49, 2020-05-01)"
   sodipodi:docname="iot.svg"
   version="1.1"
   width="100"
   viewBox="0 0 12.5 12.5"
   height="100"
   enable-background="new 0 0 64 64"
   id="Layer_1_1_">
  <metadata
     id="metadata37">
    <rdf:RDF>
      <cc:Work
         rdf:about="">
        <dc:format>image/svg+xml</dc:format>
        <dc:type
           rdf:resource="http://purl.org/dc/dcmitype/StillImage" />
        <dc:title></dc:title>
      </cc:Work>
    </rdf:RDF>
  </metadata>
  <defs
     id="defs35" />
  <sodipodi:namedview
     inkscape:current-layer="Layer_1_1_"
     inkscape:window-maximized="1"
     inkscape:window-y="32"
     inkscape:window-x="-8"
     inkscape:cy="47.843254"
     inkscape:cx="67.79661"
     inkscape:zoom="5.4"
     width="100mm"
     units="px"
     showgrid="false"
     id="namedview33"
     inkscape:window-height="837"
     inkscape:window-width="1440"
     inkscape:pageshadow="2"
     inkscape:pageopacity="0"
     guidetolerance="10"
     gridtolerance="10"
     objecttolerance="10"
     borderopacity="1"
     bordercolor="#666666"
     pagecolor="#ffffff" />
  <path
     style="stroke-width:0.169303"
     id="path2"
     d="m 9.2455349,6.3558405 c 0,-1.5295335 -1.3396544,-2.7738494 -2.9863784,-2.7738494 -1.6467241,0 -2.9863784,1.2443159 -2.9863784,2.7738494 0,0.8452082 0.4101877,1.6019794 1.0540157,2.1110626 V 9.3884736 L 3.4999184,10.156503 c -0.033026,0.03051 -0.051471,0.07196 -0.051471,0.11536 v 0.326335 h 0.3513387 v -0.258784 l 0.8268754,-0.76803 c 0.033027,-0.03051 0.051471,-0.071956 0.051471,-0.115359 V 8.7048011 C 4.843789,8.8012331 5.019985,8.8828171 5.2051406,8.9479213 V 9.714809 l -0.475537,0.441694 c -0.033026,0.03051 -0.051471,0.07196 -0.051471,0.11536 v 0.326335 H 5.0294713 V 10.339414 L 5.5050087,9.89772 C 5.5380357,9.86721 5.5564817,9.82576 5.5564817,9.78236 V 9.0489222 c 0.1705752,0.038341 0.346596,0.062656 0.5270082,0.072446 v 1.4768298 h 0.351338 V 9.1213683 c 0.1804122,-0.00979 0.3564334,-0.034103 0.527008,-0.072446 V 9.78236 c 0,0.0434 0.018443,0.08485 0.051471,0.11536 l 0.4755368,0.441694 v 0.258784 H 7.840183 v -0.326335 c 0,-0.0434 -0.018443,-0.08485 -0.051471,-0.11536 L 7.3131744,9.714809 V 8.9479213 C 7.4983299,8.8826545 7.6745264,8.8012329 7.840183,8.7048011 V 9.456025 c 0,0.043403 0.018443,0.084847 0.051471,0.115359 l 0.8268755,0.76803 v 0.258784 h 0.3513391 v -0.326335 c 0,-0.0434 -0.018443,-0.08485 -0.051471,-0.11536 L 8.1915214,9.3884736 V 8.4669031 C 8.8353491,7.9578199 9.2455374,7.2010487 9.2455374,6.3558405 Z M 6.2591565,3.9083262 c 0.3123398,0 0.6469899,0.3947023 0.8534016,1.0442726 -0.5624934,0.1050796 -1.1443104,0.1050796 -1.7068031,0 C 5.6121663,4.3030285 5.9468161,3.9083262 6.2591565,3.9083262 Z m 0,1.4503968 c 0.314448,0 0.6285451,-0.030837 0.9375465,-0.089415 0.062539,0.2765689 0.1025918,0.5865873 0.1126048,0.9233655 H 5.2090054 c 0.010015,-0.3367783 0.050065,-0.64696 0.1126042,-0.9233656 0.3090022,0.058578 0.6230989,0.089415 0.9375469,0.089415 z M 7.6604708,6.5190082 H 8.8852375 C 8.8504546,7.0060634 8.6621368,7.4536321 8.3642018,7.8219017 8.0982384,7.6959357 7.8215595,7.5954251 7.5376776,7.5203675 7.6079454,7.2141021 7.6502817,6.8768346 7.6604708,6.5190082 Z M 7.196703,7.4425369 c -0.6176527,-0.1171541 -1.2572641,-0.1171541 -1.874918,0 C 5.2592468,7.1659673 5.2191941,6.8559489 5.209181,6.5190082 H 7.3093078 C 7.2992931,6.8559489 7.2592367,7.1659673 7.196703,7.4425369 Z M 7.6604708,6.192673 C 7.6502847,5.8348464 7.6079416,5.4975788 7.5376776,5.1914761 7.8215595,5.1164194 8.0982384,5.015908 8.3642018,4.8899427 8.6621368,5.2582121 8.8504546,5.7057808 8.8852375,6.1928357 H 7.6604708 Z m -2.8026283,0 H 3.6330758 C 3.6678587,5.7056176 3.8561759,5.2580488 4.1541113,4.8897795 4.4200747,5.0157447 4.6967536,5.1164194 4.9806354,5.1913134 4.9103673,5.497742 4.8680313,5.8348464 4.8578425,6.192673 Z m 0,0.3263352 C 4.8680311,6.8768346 4.9103673,7.2141021 4.9806354,7.5203675 4.6967536,7.5952616 4.4200747,7.6957728 4.1541113,7.8219017 3.8561759,7.4536321 3.6678587,7.0060634 3.6330758,6.5190082 Z M 5.0661864,7.8367498 C 5.1758041,8.1851125 5.3233661,8.4791405 5.4988596,8.6986013 5.0735643,8.5793254 4.6932402,8.3631279 4.3882781,8.0770958 4.6073379,7.978216 4.8343029,7.89859 5.0661864,7.8367498 Z M 5.405755,7.7590815 c 0.5624927,-0.1050796 1.1443097,-0.1050796 1.7068031,0 C 6.9061464,8.408652 6.5714963,8.803354 6.2591565,8.803354 5.9468161,8.803354 5.6121663,8.408652 5.405755,7.7590815 Z M 7.452127,7.83675 C 7.6840105,7.89859 7.9109753,7.978216 8.1302107,8.0769324 7.8252487,8.3629652 7.4449247,8.579162 7.0196286,8.6984379 7.1949471,8.4791405 7.342509,8.1851125 7.452127,7.83675 Z M 8.1302107,4.6347487 C 7.9109753,4.7336278 7.6840105,4.8130905 7.452127,4.8749312 7.342509,4.5265683 7.1949471,4.2325401 7.019453,4.0130799 7.4449247,4.1325185 7.8250726,4.3487157 8.1302107,4.6347487 Z M 5.4988596,4.0132431 C 5.3233661,4.2325401 5.1759797,4.5265683 5.0661864,4.8750945 4.8343029,4.8132538 4.6073379,4.7336278 4.3881025,4.6349114 4.6932402,4.3487157 5.0733886,4.1325185 5.4988596,4.0132431 Z" />
  <path
     style="stroke-width:0.169303"
     id="path4"
     d="m 8.7185269,10.924533 h 0.3513385 v 0.326335 H 8.7185269 Z" />
  <path
     style="stroke-width:0.169303"
     id="path6"
     d="m 7.488842,10.924533 h 0.3513384 v 0.326335 H 7.488842 Z" />
  <path
     style="stroke-width:0.169303"
     id="path8"
     d="m 3.4484477,10.924533 h 0.3513385 v 0.326335 H 3.4484477 Z" />
  <path
     style="stroke-width:0.169303"
     id="path10"
     d="m 4.6781324,10.924533 h 0.3513391 v 0.326335 H 4.6781324 Z" />
  <path
     style="stroke-width:0.169303"
     id="path12"
     d="m 6.083487,10.924533 h 0.3513384 v 0.326335 H 6.083487 Z" />
  <path
     style="stroke-width:0.169303"
     id="path14"
     d="m 5.6381655,3.1402964 0.2483964,0.2307189 c 0.2055324,-0.1909062 0.5396562,-0.1909062 0.7451893,0 L 6.8801476,3.1402964 c -0.3423789,-0.3180139 -0.8996027,-0.3180139 -1.2419821,0 z" />
  <path
     style="stroke-width:0.169303"
     id="path16"
     d="m 7.4328035,2.6507933 c -0.6471667,-0.6011094 -1.7001277,-0.6011094 -2.347118,0 L 5.334082,2.8815128 c 0.5101442,-0.473839 1.340181,-0.473839 1.850325,0 z" />
  <path
     style="stroke-width:0.169303"
     id="path18"
     d="M 7.7159823,2.3920097 7.9643787,2.1612908 c -0.9401818,-0.8735994 -2.4702625,-0.8735994 -3.4104441,0 l 0.2483962,0.2307189 c 0.8031601,-0.7460023 2.110491,-0.7460023 2.9136515,0 z" />
  <path
     style="stroke-width:0.169303"
     id="path20"
     d="m 2.7972412,5.779043 c -0.3423796,0.3180133 -0.3423796,0.8355811 0,1.1535947 L 3.0456378,6.7019191 c -0.2055331,-0.1909061 -0.2055331,-0.501251 0,-0.6921572 z" />
  <path
     style="stroke-width:0.169303"
     id="path22"
     d="m 2.2702331,5.2657174 c -0.6471653,0.6011099 -0.6471653,1.5791362 0,2.1800823 L 2.5186297,7.2150809 c -0.5101436,-0.4738382 -0.5101436,-1.2448057 0,-1.7186442 z" />
  <path
     style="stroke-width:0.169303"
     id="path24"
     d="M 1.9916216,5.0026915 1.7432254,4.7719726 c -0.9403579,0.873436 -0.9403579,2.2944624 0,3.1677358 L 1.9916216,7.7089896 c -0.8031602,-0.7461657 -0.8031602,-1.9601325 0,-2.7062981 z" />
  <path
     style="stroke-width:0.169303"
     id="path26"
     d="m 9.4726751,6.0097619 c 0.2055329,0.1909062 0.2055329,0.5012511 0,0.6921572 L 9.721073,6.9326377 c 0.342379,-0.3180136 0.342379,-0.8355814 0,-1.1535947 z" />
  <path
     style="stroke-width:0.169303"
     id="path28"
     d="M 10.248079,5.2657174 9.999683,5.4964367 c 0.510145,0.4738385 0.510145,1.244806 0,1.7186442 l 0.248396,0.2307188 c 0.647166,-0.6009461 0.647166,-1.5789724 0,-2.1800823 z" />
  <path
     style="stroke-width:0.169303"
     id="path30"
     d="m 10.775088,4.7719726 -0.248396,0.2307189 c 0.80316,0.7461656 0.80316,1.9601324 0,2.7062981 l 0.248396,0.2307188 c 0.940358,-0.8734363 0.940358,-2.2942998 0,-3.1677358 z" />
</svg>
