<?xml version="1.0" encoding="UTF-8" standalone="no"?>
<svg
   xmlns:dc="http://purl.org/dc/elements/1.1/"
   xmlns:cc="http://creativecommons.org/ns#"
   xmlns:rdf="http://www.w3.org/1999/02/22-rdf-syntax-ns#"
   xmlns:svg="http://www.w3.org/2000/svg"
   xmlns="http://www.w3.org/2000/svg"
   xmlns:sodipodi="http://sodipodi.sourceforge.net/DTD/sodipodi-0.dtd"
   xmlns:inkscape="http://www.inkscape.org/namespaces/inkscape"
   inkscape:version="1.0 (4035a4fb49, 2020-05-01)"
   height="100"
   width="100"
   sodipodi:docname="python.svg"
   id="svg4"
   version="1.1"
   viewBox="0 0 100 100"
   role="img"
   class="svg-inline--fa fa-python fa-w-14"
   data-icon="python"
   data-prefix="fab"
   focusable="false"
   aria-hidden="true">
  <metadata
     id="metadata10">
    <rdf:RDF>
      <cc:Work
         rdf:about="">
        <dc:format>image/svg+xml</dc:format>
        <dc:type
           rdf:resource="http://purl.org/dc/dcmitype/StillImage" />
        <dc:title></dc:title>
      </cc:Work>
    </rdf:RDF>
  </metadata>
  <defs
     id="defs8" />
  <sodipodi:namedview
     inkscape:current-layer="svg4"
     inkscape:window-maximized="1"
     inkscape:window-y="32"
     inkscape:window-x="-8"
     inkscape:cy="8.6900504"
     inkscape:cx="90.092144"
     inkscape:zoom="2.5293854"
     showgrid="false"
     id="namedview6"
     inkscape:window-height="837"
     inkscape:window-width="1440"
     inkscape:pageshadow="2"
     inkscape:pageopacity="0"
     guidetolerance="10"
     gridtolerance="10"
     objecttolerance="10"
     borderopacity="1"
     bordercolor="#666666"
     pagecolor="#ffffff" />
  <path
     style="stroke-width:0.165398"
     id="path2"
     d="M 85.132909,40.29868 C 83.902307,35.009513 81.56896,31.021238 76.598601,31.021238 h -6.408734 v 8.113477 c 0,6.299079 -4.986336,11.605356 -10.67587,11.605356 H 42.445378 c -4.666703,0 -8.53431,4.279265 -8.53431,9.294549 v 17.425167 c 0,4.963935 4.027429,7.873834 8.53431,9.294549 5.401865,1.694581 10.595972,2.002687 17.068619,0 4.299121,-1.335124 8.534319,-4.022507 8.534319,-9.294549 V 70.49314 H 50.995674 v -2.327914 h 25.602927 c 4.970359,0 6.808264,-3.714401 8.534308,-9.277442 1.789967,-5.734196 1.710056,-11.245887 0,-18.589104 z m -24.54812,34.83318 c 1.77398,0 3.212343,1.557655 3.212343,3.474763 0,1.934231 -1.438363,3.491872 -3.212343,3.491872 -1.758018,0 -3.212355,-1.574762 -3.212355,-3.491872 0.01601,-1.934229 1.454337,-3.474763 3.212355,-3.474763 z M 41.662267,48.446385 h 17.068618 c 4.746614,0 8.534309,-4.193676 8.534309,-9.29455 v -17.44227 c 0,-4.963943 -3.899568,-8.678341 -8.534309,-9.517076 -5.721508,-1.009905 -11.938447,-0.958554 -17.068618,0.01712 -7.223799,1.369363 -8.534308,4.22791 -8.534308,9.517076 v 6.966641 h 17.084604 v 2.327919 H 26.719232 c -4.970352,0 -9.317417,3.200888 -10.675876,9.277435 -1.566221,6.966627 -1.630148,11.314362 0,18.589103 1.214623,5.408993 4.107338,9.277441 9.077694,9.277441 h 5.865337 v -8.353109 c 0,-6.042327 4.87447,-11.365731 10.67588,-11.365731 z m -1.070781,-24.4089 c -1.773992,0 -3.212354,-1.557653 -3.212354,-3.474762 0.01601,-1.934226 1.438362,-3.491877 3.212354,-3.491877 1.758007,0 3.212355,1.574769 3.212355,3.491877 0,1.917109 -1.438374,3.474762 -3.212355,3.474762 z"
     fill="currentColor" />
</svg>
